# Blender v3.0.0 OBJ File: 'hollowen.blend'
# www.blender.org
mtllib GHOST.mtl
o Sphere
v 3.443879 0.951057 -0.309017
v 3.443879 0.309017 -0.951057
v 3.443879 -0.000000 -1.000000
v 3.562135 0.951057 -0.285494
v 3.668815 0.809017 -0.543043
v 3.753477 0.587785 -0.747434
v 3.807833 0.309017 -0.878662
v 3.826563 -0.000000 -0.923880
v 3.662387 0.951057 -0.218508
v 3.859506 0.809017 -0.415627
v 4.015941 0.587785 -0.572061
v 4.116378 0.309017 -0.672498
v 4.150986 -0.000000 -0.707107
v 3.729374 0.951057 -0.118256
v 3.986922 0.809017 -0.224936
v 4.191313 0.587785 -0.309597
v 4.322541 0.309017 -0.363953
v 4.367759 -0.000000 -0.382683
v 3.752896 0.951057 0.000000
v 4.031664 0.809017 0.000000
v 4.252896 0.587785 0.000000
v 4.394936 0.309017 0.000000
v 4.443879 -0.000000 0.000000
v 3.729374 0.951057 0.118256
v 3.986922 0.809017 0.224936
v 4.191313 0.587785 0.309598
v 4.322541 0.309017 0.363954
v 4.367759 -0.000000 0.382684
v 3.662387 0.951057 0.218508
v 3.859506 0.809017 0.415627
v 4.015941 0.587785 0.572062
v 4.116378 0.309017 0.672499
v 4.150986 -0.000000 0.707107
v 3.562135 0.951057 0.285495
v 3.668815 0.809017 0.543043
v 3.753476 0.587785 0.747434
v 3.807832 0.309017 0.878662
v 3.826562 -0.000000 0.923880
v 3.443879 0.951057 0.309017
v 3.443879 0.809017 0.587785
v 3.443879 0.587785 0.809017
v 3.443879 0.309017 0.951057
v 3.443879 -0.000000 1.000000
v 3.325623 0.951057 0.285495
v 3.218943 0.809017 0.543043
v 3.134281 0.587785 0.747434
v 3.079925 0.309017 0.878662
v 3.061195 -0.000000 0.923880
v 3.225371 0.951057 0.218508
v 3.028252 0.809017 0.415627
v 2.871818 0.587785 0.572061
v 2.771380 0.309017 0.672498
v 2.736772 -0.000000 0.707107
v 3.443879 1.000000 0.000000
v 3.158385 0.951057 0.118256
v 2.900836 0.809017 0.224936
v 2.696445 0.587785 0.309597
v 2.565217 0.309017 0.363953
v 2.520000 -0.000000 0.382683
v 3.134862 0.951057 -0.000000
v 2.856094 0.809017 -0.000000
v 2.634862 0.587785 -0.000000
v 2.492823 0.309017 -0.000000
v 2.443879 -0.000000 -0.000000
v 3.158385 0.951057 -0.118256
v 2.900837 0.809017 -0.224936
v 2.696445 0.587785 -0.309598
v 2.565218 0.309017 -0.363954
v 2.520000 -0.000000 -0.382684
v 3.225371 0.951057 -0.218508
v 3.028253 0.809017 -0.415627
v 2.871818 0.587785 -0.572061
v 2.771381 0.309017 -0.672499
v 2.736773 -0.000000 -0.707107
v 3.325624 0.951057 -0.285495
v 3.218944 0.809017 -0.543043
v 3.134282 0.587785 -0.747434
v 3.079926 0.309017 -0.878662
v 3.061196 -0.000000 -0.923880
v 3.443880 0.809017 -0.587785
v 3.443880 0.587785 -0.809017
v 3.207605 -1.740829 -1.001594
v 3.590288 -1.980104 -0.925474
v 3.914711 -1.752223 -0.708701
v 4.131485 -1.980104 -0.384277
v 4.207604 -1.752223 -0.001594
v 4.131484 -1.980104 0.381090
v 3.914711 -1.752223 0.705513
v 3.590288 -1.980104 0.922286
v 3.207604 -1.740829 0.998406
v 2.824921 -1.980104 0.922285
v 2.500498 -1.752223 0.705512
v 2.283725 -1.980104 0.381089
v 2.207605 -1.752223 -0.001594
v 2.283725 -1.980104 -0.384278
v 2.500498 -1.752223 -0.708701
v 2.824922 -1.980104 -0.925474
v 2.587252 -1.584083 0.705831
v 2.677804 -1.188062 0.706150
v 2.737972 -0.792042 0.706469
v 2.706988 -0.396021 0.706788
v 2.490216 -0.396021 0.382364
v 2.521200 -0.792042 0.382045
v 2.461032 -1.188062 0.381727
v 2.370479 -1.584083 0.381408
v 3.294359 -1.584083 0.998725
v 3.384911 -1.188062 0.999044
v 3.445079 -0.792042 0.999362
v 3.414095 -0.396021 0.999681
v 3.031411 -0.396021 0.923561
v 3.062396 -0.792042 0.923242
v 3.002228 -1.188062 0.922923
v 2.911675 -1.584083 0.922604
v 2.294359 -1.584083 -0.001276
v 2.384912 -1.188062 -0.000957
v 2.445080 -0.792042 -0.000638
v 2.414095 -0.396021 -0.000319
v 2.490216 -0.396021 -0.383003
v 2.521200 -0.792042 -0.383321
v 2.461032 -1.188062 -0.383640
v 2.370480 -1.584083 -0.383959
v 4.218239 -1.584083 -0.383959
v 4.308791 -1.188062 -0.383640
v 4.368959 -0.792042 -0.383321
v 4.337975 -0.396021 -0.383002
v 4.414095 -0.396021 -0.000319
v 4.445080 -0.792042 -0.000637
v 4.384912 -1.188062 -0.000956
v 4.294359 -1.584083 -0.001275
v 3.677042 -1.584083 0.922604
v 3.767595 -1.188062 0.922923
v 3.827763 -0.792042 0.923242
v 3.796778 -0.396021 0.923561
v 2.911676 -1.584083 -0.925155
v 3.002228 -1.188062 -0.924836
v 3.062397 -0.792042 -0.924517
v 3.031412 -0.396021 -0.924198
v 3.414095 -0.396021 -1.000319
v 3.445080 -0.792042 -1.000638
v 3.384911 -1.188062 -1.000957
v 3.294359 -1.584083 -1.001275
v 2.587253 -1.584083 -0.708382
v 2.677805 -1.188062 -0.708063
v 2.737973 -0.792042 -0.707745
v 2.706989 -0.396021 -0.707426
v 3.677042 -1.584083 -0.925155
v 3.767595 -1.188062 -0.924836
v 3.827763 -0.792042 -0.924517
v 3.796779 -0.396021 -0.924198
v 4.121202 -0.396021 -0.707426
v 4.152186 -0.792042 -0.707744
v 4.092018 -1.188062 -0.708063
v 4.001466 -1.584083 -0.708382
v 4.337975 -0.396021 0.382365
v 4.368959 -0.792042 0.382046
v 4.308791 -1.188062 0.381727
v 4.218238 -1.584083 0.381408
v 4.001466 -1.584083 0.705832
v 4.092018 -1.188062 0.706151
v 4.152186 -0.792042 0.706469
v 4.121202 -0.396021 0.706788
vt 0.834145 0.862080
vt 0.832028 0.875431
vt 0.826158 0.875431
vt 0.822978 0.862080
vt 0.760215 0.839196
vt 0.759586 0.850496
vt 0.748483 0.851968
vt 0.744934 0.841222
vt 0.759742 0.825325
vt 0.741778 0.827707
vt 0.829276 0.890232
vt 0.758212 0.810241
vt 0.739324 0.812746
vt 0.820049 0.851484
vt 0.812662 0.866366
vt 0.805849 0.857383
vt 0.730839 0.843271
vt 0.725208 0.830116
vt 0.820734 0.877685
vt 0.721901 0.815278
vt 0.915066 0.289517
vt 0.912860 0.461468
vt 0.739627 0.468144
vt 0.759773 0.297648
vt 0.816583 0.881848
vt 0.804766 0.874285
vt 0.794981 0.868283
vt 0.856052 0.610386
vt 0.692586 0.618114
vt 0.814336 0.887288
vt 0.758854 0.295961
vt 0.739462 0.467777
vt 0.545850 0.470075
vt 0.555277 0.298377
vt 0.800492 0.884632
vt 0.789099 0.882524
vt 0.691132 0.618269
vt 0.526435 0.620223
vt 0.348010 0.616211
vt 0.336099 0.465358
vt 0.814336 0.893176
vt 0.334732 0.293418
vt 0.800492 0.895831
vt 0.789099 0.897939
vt 0.183021 0.606844
vt 0.142142 0.454346
vt 0.816583 0.898615
vt 0.130794 0.281839
vt 0.804766 0.906179
vt 0.794981 0.912181
vt 0.812662 0.914098
vt 0.805849 0.923081
vt 0.951898 0.824049
vt 0.946152 0.837909
vt 0.935242 0.837153
vt 0.939072 0.823161
vt 0.820734 0.902779
vt 0.953864 0.808900
vt 0.940378 0.807966
vt 0.826158 0.905032
vt 0.822978 0.918384
vt 0.820049 0.928980
vt 0.920995 0.836756
vt 0.922324 0.822693
vt 0.922768 0.807474
vt 0.904203 0.822719
vt 0.903715 0.807501
vt 0.832028 0.905032
vt 0.834145 0.918384
vt 0.918912 0.848284
vt 0.907712 0.848300
vt 0.905581 0.836777
vt 0.837452 0.902779
vt 0.887468 0.823232
vt 0.886118 0.808041
vt 0.844461 0.914098
vt 0.897369 0.848618
vt 0.891344 0.837214
vt 0.869593 0.825756
vt 0.864189 0.839990
vt 0.853210 0.838241
vt 0.856687 0.823700
vt 0.841603 0.898615
vt 0.871201 0.810636
vt 0.857631 0.808475
vt 0.852357 0.906179
vt 0.849618 0.923081
vt 0.860485 0.912181
vt 0.847542 0.850674
vt 0.837166 0.850141
vt 0.838929 0.837507
vt 0.839898 0.822837
vt 0.843850 0.893176
vt 0.839978 0.807567
vt 0.856631 0.895832
vt 0.825970 0.850425
vt 0.823519 0.837898
vt 0.821783 0.823297
vt 0.843850 0.887288
vt 0.820931 0.808050
vt 0.856631 0.884632
vt 0.841603 0.881848
vt 0.852357 0.874285
vt 0.815658 0.851484
vt 0.809327 0.839355
vt 0.805099 0.825010
vt 0.803388 0.809852
vt 0.792386 0.827716
vt 0.790021 0.812697
vt 0.837452 0.877685
vt 0.844461 0.866366
vt 0.860485 0.868283
vt 0.849618 0.857383
vt 0.798513 0.841657
vt 0.776365 0.823333
vt 0.774356 0.837502
vt 0.775691 0.808146
vt 0.769860 0.849265
vt 0.870622 0.733285
vt 0.857052 0.731123
vt 0.857359 0.711334
vt 0.871201 0.724426
vt 0.915491 0.730226
vt 0.896437 0.730252
vt 0.892252 0.710910
vt 0.911322 0.722539
vt 0.839399 0.730215
vt 0.820352 0.730699
vt 0.820659 0.710910
vt 0.839978 0.721357
vt 0.885183 0.954320
vt 0.902766 0.954111
vt 0.903400 0.962655
vt 0.885563 0.973951
vt 0.933101 0.730717
vt 0.928916 0.711375
vt 0.772645 0.730595
vt 0.755166 0.732689
vt 0.758286 0.724583
vt 0.774229 0.710910
vt 0.878840 0.730793
vt 0.874670 0.722551
vt 0.786053 0.729228
vt 0.789099 0.720570
vt 0.802809 0.732501
vt 0.803388 0.723642
vt 0.736277 0.735194
vt 0.718855 0.737726
vt 0.721901 0.729068
vt 0.737862 0.715509
vt 0.921815 0.954540
vt 0.922196 0.974170
vt 0.939430 0.955540
vt 0.952928 0.956959
vt 0.953308 0.976590
vt 0.940063 0.964083
vt 0.705551 0.739902
vt 0.707135 0.720217
vt 0.132741 0.057320
vt 0.336679 0.068899
vt 0.922027 0.896236
vt 0.939642 0.897236
vt 0.938889 0.916374
vt 0.921274 0.915374
vt 0.939013 0.935893
vt 0.921398 0.934893
vt 0.914468 0.286538
vt 0.760801 0.071442
vt 0.916416 0.062019
vt 0.720779 0.795936
vt 0.707475 0.798111
vt 0.703465 0.779134
vt 0.716769 0.776959
vt 0.871201 0.915968
vt 0.884642 0.915155
vt 0.884766 0.934674
vt 0.871326 0.935488
vt 0.871742 0.955134
vt 0.738201 0.793403
vt 0.757090 0.790899
vt 0.734191 0.774426
vt 0.753080 0.771922
vt 0.734513 0.754901
vt 0.753401 0.752397
vt 0.939810 0.877844
vt 0.953308 0.879264
vt 0.953140 0.898656
vt 0.952408 0.789593
vt 0.938923 0.788658
vt 0.940378 0.769387
vt 0.953864 0.770322
vt 0.952387 0.917794
vt 0.952511 0.937313
vt 0.557225 0.073858
vt 0.902978 0.895808
vt 0.902225 0.914946
vt 0.902350 0.934465
vt 0.717090 0.757434
vt 0.803174 0.790583
vt 0.820716 0.788782
vt 0.802402 0.771871
vt 0.819945 0.770069
vt 0.802467 0.752325
vt 0.820009 0.750523
vt 0.789099 0.806780
vt 0.774569 0.788804
vt 0.787977 0.787438
vt 0.770559 0.769827
vt 0.783967 0.768461
vt 0.770880 0.750302
vt 0.784288 0.748936
vt 0.789099 0.755170
vt 0.789442 0.735346
vt 0.884662 0.788734
vt 0.902259 0.788193
vt 0.886118 0.769463
vt 0.903715 0.768923
vt 0.883207 0.750137
vt 0.900804 0.749597
vt 0.839764 0.788298
vt 0.857417 0.789206
vt 0.838993 0.769585
vt 0.856645 0.770493
vt 0.839057 0.750039
vt 0.856709 0.750947
vt 0.921313 0.788167
vt 0.922768 0.768896
vt 0.919857 0.749570
vt 0.937467 0.750062
vt 0.885395 0.896017
vt 0.872657 0.809013
vt 0.871201 0.789705
vt 0.872657 0.770435
vt 0.870216 0.772655
vt 0.870280 0.753109
vn 0.0000 0.7998 -0.6003
vn 0.0000 0.9452 -0.3265
vn 0.1249 0.9452 -0.3016
vn 0.2297 0.7998 -0.5546
vn 0.0000 0.5787 -0.8155
vn 0.3121 0.5787 -0.7534
vn 0.0000 0.3034 -0.9528
vn 0.3646 0.3034 -0.8803
vn 0.0000 1.0000 0.0000
vn 0.0047 0.0777 -0.9969
vn 0.3859 0.0634 -0.9203
vn 0.4245 0.7998 -0.4245
vn 0.5766 0.5787 -0.5766
vn 0.6738 0.3034 -0.6738
vn 0.2308 0.9452 -0.2308
vn 0.7085 0.0514 -0.7038
vn 0.8803 0.3034 -0.3646
vn 0.9237 0.0433 -0.3806
vn 0.3016 0.9452 -0.1249
vn 0.5546 0.7998 -0.2297
vn 0.7534 0.5787 -0.3121
vn 0.3265 0.9452 0.0000
vn 0.9528 0.3034 0.0000
vn 0.9992 0.0404 0.0000
vn 0.6003 0.7998 0.0000
vn 0.8155 0.5787 0.0000
vn 0.7534 0.5787 0.3121
vn 0.8803 0.3034 0.3646
vn 0.3016 0.9452 0.1249
vn 0.9237 0.0430 0.3807
vn 0.5546 0.7998 0.2297
vn 0.5766 0.5787 0.5766
vn 0.6738 0.3034 0.6738
vn 0.2308 0.9452 0.2308
vn 0.7085 0.0508 0.7039
vn 0.4245 0.7998 0.4245
vn 0.2297 0.7998 0.5546
vn 0.3121 0.5787 0.7534
vn 0.3646 0.3034 0.8803
vn 0.1249 0.9452 0.3016
vn 0.3859 0.0627 0.9204
vn 0.0000 0.9452 0.3265
vn 0.0000 0.7998 0.6003
vn 0.0000 0.5787 0.8155
vn 0.0000 0.3034 0.9528
vn 0.0047 0.0769 0.9970
vn -0.3646 0.3034 0.8803
vn -0.3770 0.0914 0.9217
vn -0.1249 0.9452 0.3016
vn -0.2297 0.7998 0.5546
vn -0.3121 0.5787 0.7534
vn -0.2308 0.9452 0.2308
vn -0.6738 0.3034 0.6738
vn -0.7009 0.1038 0.7057
vn -0.4245 0.7998 0.4245
vn -0.5766 0.5787 0.5766
vn -0.7534 0.5787 0.3121
vn -0.8803 0.3034 0.3646
vn -0.3016 0.9452 0.1249
vn -0.9173 0.1122 0.3820
vn -0.5546 0.7998 0.2297
vn -0.6003 0.7998 0.0000
vn -0.8155 0.5787 0.0000
vn -0.9528 0.3034 0.0000
vn -0.3265 0.9452 0.0000
vn -0.9933 0.1152 0.0000
vn -0.5546 0.7998 -0.2297
vn -0.7534 0.5787 -0.3121
vn -0.8803 0.3034 -0.3646
vn -0.3016 0.9452 -0.1249
vn -0.9173 0.1125 -0.3819
vn -0.2308 0.9452 -0.2308
vn -0.4245 0.7998 -0.4245
vn -0.5766 0.5787 -0.5766
vn -0.6738 0.3034 -0.6738
vn -0.7009 0.1043 -0.7056
vn -0.3646 0.3034 -0.8803
vn -0.3770 0.0921 -0.9216
vn -0.1249 0.9452 -0.3016
vn -0.2297 0.7998 -0.5546
vn -0.3121 0.5787 -0.7534
vn -0.6876 0.1834 0.7025
vn -0.8966 0.2407 0.3716
vn -0.8904 0.2734 0.3637
vn -0.7255 0.2224 0.6512
vn 0.0081 -0.0047 0.9999
vn -0.3765 0.0995 0.9210
vn -0.3980 0.1219 0.9092
vn -0.0655 0.0194 0.9977
vn -0.9657 0.2597 0.0001
vn -0.8965 0.2414 -0.3715
vn -0.8902 0.2742 -0.3637
vn -0.9558 0.2940 -0.0003
vn 0.8988 -0.2393 -0.3673
vn 0.9663 -0.2573 0.0000
vn 0.9558 -0.2940 -0.0001
vn 0.8841 -0.2715 -0.3803
vn 0.3891 -0.1065 0.9150
vn 0.3578 -0.1118 0.9271
vn -0.3765 0.1014 -0.9208
vn 0.0082 -0.0028 -0.9999
vn -0.0657 0.0218 -0.9976
vn -0.3978 0.1239 -0.9091
vn -0.6875 0.1847 -0.7023
vn -0.7251 0.2237 -0.6513
vn 0.3892 -0.1047 -0.9152
vn 0.6943 -0.1851 -0.6955
vn 0.6707 -0.2055 -0.7127
vn 0.3579 -0.1097 -0.9273
vn 0.8986 -0.2400 0.3673
vn 0.8840 -0.2723 0.3800
vn 0.6941 -0.1864 0.6953
vn 0.6707 -0.2071 0.7122
vn 0.7023 0.0005 0.7119
vn 0.9225 0.0011 0.3861
vn 0.7138 -0.0266 0.6999
vn 0.9254 -0.0336 0.3775
vn 0.7024 -0.1341 0.6990
vn 0.9104 -0.1727 0.3758
vn 0.9225 0.0017 -0.3861
vn 0.7023 0.0016 -0.7119
vn 0.9254 -0.0331 -0.3776
vn 0.7138 -0.0255 -0.6999
vn 0.9105 -0.1721 -0.3759
vn 0.7025 -0.1330 -0.6991
vn 0.3745 0.0013 -0.9272
vn -0.0095 0.0008 -0.9999
vn 0.3946 -0.0141 -0.9187
vn 0.0142 -0.0002 -0.9999
vn 0.3851 -0.0731 -0.9199
vn 0.0046 -0.0009 -1.0000
vn 0.3745 -0.0002 0.9272
vn 0.3946 -0.0156 0.9187
vn 0.3850 -0.0746 0.9199
vn 1.0000 0.0015 0.0000
vn 0.9993 -0.0358 0.0000
vn 0.9826 -0.1858 0.0000
vn -0.7118 -0.0005 -0.7024
vn -0.9252 -0.0011 -0.3793
vn -0.6996 0.0262 -0.7140
vn -0.9212 0.0342 -0.3876
vn -0.6981 0.1333 -0.7035
vn -0.9090 0.1737 -0.3788
vn -0.3907 0.0001 -0.9205
vn -0.3704 0.0140 -0.9288
vn -0.3773 0.0719 -0.9232
vn -0.7118 -0.0016 0.7024
vn -0.3907 -0.0013 0.9205
vn -0.6996 0.0250 0.7140
vn -0.3704 0.0125 0.9288
vn -0.6982 0.1322 0.7036
vn -0.3774 0.0704 0.9234
vn -1.0000 -0.0015 0.0000
vn -0.9252 -0.0017 0.3793
vn -0.9993 0.0369 0.0000
vn -0.9212 0.0336 0.3876
vn -0.9822 0.1875 0.0000
vn -0.9091 0.1731 0.3789
vn -0.0095 -0.0008 0.9999
vn 0.0142 -0.0018 0.9999
vn 0.0046 -0.0026 1.0000
usemtl Material
s 1
f 80/1/1 1/2/2 4/3/3 5/4/4
f 81/5/5 80/6/1 5/7/4 6/8/6
f 2/9/7 81/5/5 6/8/6 7/10/8
f 1/2/2 54/11/9 4/3/3
f 3/12/10 2/9/7 7/10/8 8/13/11
f 6/14/6 5/4/4 10/15/12 11/16/13
f 7/10/8 6/8/6 11/17/13 12/18/14
f 4/3/3 54/11/9 9/19/15
f 8/13/11 7/10/8 12/18/14 13/20/16
f 5/4/4 4/3/3 9/19/15 10/15/12
f 13/21/16 12/22/14 17/23/17 18/24/18
f 10/15/12 9/19/15 14/25/19 15/26/20
f 11/16/13 10/15/12 15/26/20 16/27/21
f 12/22/14 11/28/13 16/29/21 17/23/17
f 9/19/15 54/11/9 14/25/19
f 14/25/19 54/11/9 19/30/22
f 18/31/18 17/32/17 22/33/23 23/34/24
f 15/26/20 14/25/19 19/30/22 20/35/25
f 16/27/21 15/26/20 20/35/25 21/36/26
f 17/32/17 16/37/21 21/38/26 22/33/23
f 22/33/23 21/38/26 26/39/27 27/40/28
f 19/30/22 54/11/9 24/41/29
f 23/34/24 22/33/23 27/40/28 28/42/30
f 20/35/25 19/30/22 24/41/29 25/43/31
f 21/36/26 20/35/25 25/43/31 26/44/27
f 27/40/28 26/39/27 31/45/32 32/46/33
f 24/41/29 54/11/9 29/47/34
f 28/42/30 27/40/28 32/46/33 33/48/35
f 25/43/31 24/41/29 29/47/34 30/49/36
f 26/44/27 25/43/31 30/49/36 31/50/32
f 31/50/32 30/49/36 35/51/37 36/52/38
f 32/53/33 31/54/32 36/55/38 37/56/39
f 29/47/34 54/11/9 34/57/40
f 33/58/35 32/53/33 37/56/39 38/59/41
f 30/49/36 29/47/34 34/57/40 35/51/37
f 35/51/37 34/57/40 39/60/42 40/61/43
f 36/52/38 35/51/37 40/61/43 41/62/44
f 37/56/39 36/55/38 41/63/44 42/64/45
f 34/57/40 54/11/9 39/60/42
f 38/59/41 37/56/39 42/64/45 43/65/46
f 43/65/46 42/64/45 47/66/47 48/67/48
f 40/61/43 39/60/42 44/68/49 45/69/50
f 41/63/44 40/70/43 45/71/50 46/72/51
f 42/64/45 41/63/44 46/72/51 47/66/47
f 39/60/42 54/11/9 44/68/49
f 44/68/49 54/11/9 49/73/52
f 48/67/48 47/66/47 52/74/53 53/75/54
f 45/69/50 44/68/49 49/73/52 50/76/55
f 46/72/51 45/71/50 50/77/55 51/78/56
f 47/66/47 46/72/51 51/78/56 52/74/53
f 52/79/53 51/80/56 57/81/57 58/82/58
f 49/73/52 54/11/9 55/83/59
f 53/84/54 52/79/53 58/82/58 59/85/60
f 50/76/55 49/73/52 55/83/59 56/86/61
f 51/87/56 50/76/55 56/86/61 57/88/57
f 57/81/57 56/89/61 61/90/62 62/91/63
f 58/82/58 57/81/57 62/91/63 63/92/64
f 55/83/59 54/11/9 60/93/65
f 59/85/60 58/82/58 63/92/64 64/94/66
f 56/86/61 55/83/59 60/93/65 61/95/62
f 62/91/63 61/90/62 66/96/67 67/97/68
f 63/92/64 62/91/63 67/97/68 68/98/69
f 60/93/65 54/11/9 65/99/70
f 64/94/66 63/92/64 68/98/69 69/100/71
f 61/95/62 60/93/65 65/99/70 66/101/67
f 66/101/67 65/99/70 70/102/72 71/103/73
f 67/97/68 66/96/67 71/104/73 72/105/74
f 68/98/69 67/97/68 72/105/74 73/106/75
f 65/99/70 54/11/9 70/102/72
f 69/100/71 68/98/69 73/106/75 74/107/76
f 74/107/76 73/106/75 78/108/77 79/109/78
f 71/103/73 70/102/72 75/110/79 76/111/80
f 72/112/74 71/103/73 76/111/80 77/113/81
f 73/106/75 72/105/74 77/114/81 78/108/77
f 70/102/72 54/11/9 75/110/79
f 78/115/77 77/116/81 81/5/5 2/9/7
f 75/110/79 54/11/9 1/2/2
f 79/117/78 78/115/77 2/9/7 3/12/10
f 76/111/80 75/110/79 1/2/2 80/1/1
f 77/116/81 76/118/80 80/6/1 81/5/5
f 98/119/82 105/120/83 93/121/84 92/122/85
f 106/123/86 113/124/87 91/125/88 90/126/89
f 114/127/90 121/128/91 95/129/92 94/130/93
f 122/131/94 129/132/95 86/133/96 85/134/97
f 130/135/98 106/123/86 90/126/89 89/136/99
f 105/120/83 114/127/90 94/130/93 93/121/84
f 134/137/100 141/138/101 82/139/102 97/140/103
f 113/124/87 98/141/82 92/142/85 91/125/88
f 142/143/104 134/137/100 97/140/103 96/144/105
f 121/128/91 142/145/104 96/146/105 95/129/92
f 146/147/106 153/148/107 84/149/108 83/150/109
f 129/132/95 157/151/110 87/152/111 86/133/96
f 158/153/112 130/154/98 89/155/99 88/156/113
f 141/138/101 146/147/106 83/150/109 82/139/102
f 153/148/107 122/157/94 85/158/97 84/149/108
f 157/151/110 158/153/112 88/156/113 87/152/111
f 28/42/30 33/48/35 161/159/114 154/160/115
f 154/161/115 161/162/114 160/163/116 155/164/117
f 155/164/117 160/163/116 159/165/118 156/166/119
f 156/166/119 159/165/118 158/153/112 157/151/110
f 13/167/16 18/31/18 125/168/120 150/169/121
f 150/170/121 125/171/120 124/172/122 151/173/123
f 151/174/123 124/175/122 123/176/124 152/177/125
f 152/177/125 123/176/124 122/131/94 153/178/107
f 3/12/10 8/13/11 149/179/126 138/180/127
f 138/180/127 149/179/126 148/181/128 139/182/129
f 139/182/129 148/181/128 147/183/130 140/184/131
f 140/184/131 147/183/130 146/147/106 141/138/101
f 33/185/35 38/186/41 133/187/132 161/162/114
f 161/188/114 133/189/132 132/190/133 160/191/116
f 160/163/116 132/192/133 131/193/134 159/165/118
f 159/165/118 131/193/134 130/154/98 158/153/112
f 23/34/24 28/42/30 154/160/115 126/194/135
f 126/195/135 154/161/115 155/164/117 127/196/136
f 127/196/136 155/164/117 156/166/119 128/197/137
f 128/197/137 156/166/119 157/151/110 129/132/95
f 8/13/11 13/20/16 150/170/121 149/179/126
f 149/179/126 150/170/121 151/173/123 148/181/128
f 148/181/128 151/173/123 152/198/125 147/183/130
f 147/183/130 152/198/125 153/148/107 146/147/106
f 69/100/71 74/107/76 145/199/138 118/200/139
f 118/200/139 145/199/138 144/201/140 119/202/141
f 119/202/141 144/201/140 143/203/142 120/204/143
f 120/204/143 143/203/142 142/145/104 121/128/91
f 74/205/76 79/117/78 137/206/144 145/207/138
f 145/207/138 137/206/144 136/208/145 144/209/140
f 144/209/140 136/208/145 135/210/146 143/211/142
f 143/203/142 135/212/146 134/213/100 142/145/104
f 48/67/48 53/75/54 101/214/147 110/215/148
f 110/215/148 101/214/147 100/216/149 111/217/150
f 111/217/150 100/216/149 99/218/151 112/219/152
f 112/219/152 99/218/151 98/141/82 113/124/87
f 79/117/78 3/12/10 138/180/127 137/206/144
f 137/206/144 138/180/127 139/182/129 136/208/145
f 136/208/145 139/182/129 140/184/131 135/210/146
f 135/210/146 140/184/131 141/138/101 134/137/100
f 59/85/60 64/94/66 117/220/153 102/221/154
f 102/221/154 117/220/153 116/222/155 103/223/156
f 103/223/156 116/222/155 115/224/157 104/225/158
f 104/225/158 115/224/157 114/127/90 105/120/83
f 38/59/41 43/65/46 109/226/159 133/189/132
f 133/189/132 109/226/159 108/227/160 132/190/133
f 132/190/133 108/227/160 107/228/161 131/229/134
f 131/229/134 107/228/161 106/123/86 130/135/98
f 18/31/18 23/34/24 126/194/135 125/168/120
f 125/230/120 126/195/135 127/196/136 124/175/122
f 124/175/122 127/196/136 128/197/137 123/176/124
f 123/176/124 128/197/137 129/132/95 122/131/94
f 64/94/66 69/100/71 118/200/139 117/220/153
f 117/220/153 118/200/139 119/202/141 116/222/155
f 116/222/155 119/202/141 120/204/143 115/224/157
f 115/224/157 120/204/143 121/128/91 114/127/90
f 43/65/46 48/67/48 110/215/148 109/226/159
f 109/226/159 110/215/148 111/217/150 108/227/160
f 108/227/160 111/217/150 112/219/152 107/228/161
f 107/228/161 112/219/152 113/124/87 106/123/86
f 53/75/54 59/231/60 102/232/154 101/214/147
f 101/214/147 102/232/154 103/233/156 100/216/149
f 100/234/149 103/223/156 104/225/158 99/235/151
f 99/235/151 104/225/158 105/120/83 98/119/82
