# Blender v3.0.0 OBJ File: ''
# www.blender.org
mtllib bot.mtl
o Cone.001_Cone.002
v 0.000000 -0.002853 -1.991106
v 1.732051 -0.002853 1.008895
v -1.732051 -0.002853 1.008894
v 0.000000 2.997147 0.008894
vt 0.632838 0.637091
vt 0.223667 0.637091
vt 0.019081 0.282738
vt 0.980848 0.751851
vt 0.973666 0.019798
vt 0.343280 0.392044
vt 0.019081 0.991444
vn 0.8216 0.3162 -0.4743
vn 0.0000 -1.0000 0.0000
vn -0.0000 0.3162 0.9487
vn -0.8216 0.3162 -0.4743
usemtl None
s off
f 1/1/1 4/2/1 2/3/1
f 1/4/2 2/5/2 3/6/2
f 2/3/3 4/2/3 3/7/3
f 3/7/4 4/2/4 1/1/4
