# Blender v3.0.0 OBJ File: ''
# www.blender.org
mtllib top.mtl
o Cone.002_Cone.003
v 0.000000 0.003249 -2.001403
v 2.000000 0.003249 -0.001403
v -0.000000 0.003249 1.998597
v -2.000000 0.003249 -0.001403
v 0.000000 3.003249 -0.001403
vt 0.478366 0.478998
vt 0.250000 0.250000
vt 0.478998 0.021634
vt 0.021634 0.021002
vt 0.971566 0.958359
vt 0.970048 0.535348
vt 0.547036 0.536867
vt 0.548555 0.959878
vt 0.021002 0.478366
vn 0.6396 0.4264 -0.6396
vn 0.6396 0.4264 0.6396
vn 0.0000 -1.0000 0.0000
vn -0.6396 0.4264 0.6396
vn -0.6396 0.4264 -0.6396
usemtl None
s off
f 1/1/1 5/2/1 2/3/1
f 2/3/2 5/2/2 3/4/2
f 1/5/3 2/6/3 3/7/3 4/8/3
f 3/4/4 5/2/4 4/9/4
f 4/9/5 5/2/5 1/1/5
